<?xml version="1.0" encoding="utf-8"?>
<!-- Generator: Adobe Illustrator 16.0.0, SVG Export Plug-In . SVG Version: 6.00 Build 0)  -->
<svg version="1.2" baseProfile="tiny" xmlns="http://www.w3.org/2000/svg" xmlns:xlink="http://www.w3.org/1999/xlink" x="0px"
	 y="0px" width="595.28px" height="600px" viewBox="0 0 595.28 600" xml:space="preserve">
<g id="Calque_2" display="none">
	<rect x="-71" y="-53.945" display="inline" fill-rule="evenodd" width="748" height="719"/>
</g>
<g id="Calque_1">
	<g>
		<path fill-rule="evenodd" fill="#FFFFFF" d="M104.507,470.757c-2.182-3.191-4.111-5.889-5.913-8.668
			c-15.746-24.286-28.738-49.878-35.387-78.215c-2.356-10.045-3.845-20.391-4.615-30.682c-0.873-11.647-1.036-23.41-0.556-35.085
			c1.342-32.701,7.68-64.314,22.234-93.931c8.625-17.55,19.528-33.587,32.129-48.517c13.806-16.356,29.217-31.012,46.209-44.002
			c19.283-14.743,40.755-25.224,63.863-32.437c14.408-4.498,29.083-7.834,44.125-9.308c9.003-0.882,18.034-1.513,27.06-2.124
			c1.761-0.119,2.668-0.677,3.478-2.285c9.528-18.926,19.197-37.781,28.695-56.722c1.254-2.502,2.645-3.469,5.538-3.464
			c24.965,0.041,49.93-0.11,74.896-0.197c0.268-0.001,0.535,0.072,1.26,0.175c0,0.99-0.001,2.032,0,3.075
			c0.022,27.69,0.081,55.38,0.011,83.07c-0.006,2.719,1.004,4.382,3.202,5.711c8.269,4.994,16.682,9.777,24.708,15.136
			c15.02,10.026,27.955,22.428,39.931,35.907c12.726,14.322,23.941,29.691,33.249,46.437c11.605,20.882,20.01,42.99,24.761,66.407
			c3.542,17.451,4.496,35.12,4.008,52.924c-0.842,30.732-7.115,60.279-18.594,88.754c-9.171,22.753-21.495,43.664-37.537,62.225
			c-19.815,22.925-43.278,41.425-69.841,55.995c-18.301,10.038-37.474,17.852-57.825,22.661c-17.3,4.087-34.876,5.288-52.578,4.848
			c-9.509-0.238-19.089-0.257-28.493-1.479c-14.755-1.915-29.429-4.544-44.059-7.284c-12.144-2.277-24.068-5.533-35.356-10.705
			c-3.518-1.61-6.848-3.632-10.487-5.587c1.938-4.27,3.684-8.288,5.571-12.24c5.755-12.054,11.568-24.081,17.349-36.124
			c0.68-1.416,1.245-2.593,3.183-1.314c12.284,8.109,26.179,12.334,40.18,16.101c16.29,4.38,32.984,6.487,49.83,6.495
			c37.186,0.017,71.868-9.283,102.952-29.988c38.547-25.677,63.873-61.157,76.194-105.822c3.219-11.669,5.317-23.572,5.484-35.715
			c0.142-10.326,0.751-20.723-0.149-30.973c-3.198-36.399-15.365-69.555-37.477-98.853c-7.606-10.078-15.625-19.796-25.82-27.43
			c-2.565-1.921-5.36-3.533-8.684-5.7c-0.372,2.023-0.797,3.275-0.804,4.53c-0.19,32.501-0.362,65.002-0.484,97.503
			c-0.104,27.328-0.138,54.655-0.223,81.981c-0.008,2.062-0.192,4.12-0.328,6.853c-1.585-1.279-2.747-2.079-3.751-3.043
			c-25.333-24.33-50.644-48.686-75.996-72.997c-1.41-1.354-2.042-2.72-2.046-4.716c-0.072-27.055-0.228-54.108-0.369-81.162
			c-0.004-0.883-0.075-1.766-0.671-2.809c-18.974,42.25-37.949,84.5-57.162,127.284c19.709,0,38.821,0,58.461,0
			c0-10.77,0-21.685,0-32.6c0.319-0.142,0.64-0.283,0.96-0.425c26.817,26.822,53.636,53.645,80.768,80.782
			c-27.527,22.465-54.505,44.482-81.482,66.499c-0.304-0.075-0.607-0.149-0.91-0.224c0-11.077,0-22.155,0-33.556
			c-1.684,0-2.649,0-3.615,0c-27.781,0.009-55.564,0.194-83.343-0.105c-6.375-0.068-9.57,1.683-12.245,7.923
			c-21.148,49.342-42.824,98.457-64.23,147.688c-1.185,2.725-2.517,3.663-5.541,3.646c-29.869-0.171-59.738-0.148-89.607-0.198
			c-1.698-0.003-3.396-0.157-5.529-0.263c2.256-4.82,4.321-9.293,6.437-13.742c25.878-54.417,51.792-108.813,77.639-163.244
			c29.884-62.93,59.722-125.88,89.553-188.835c9.202-19.419,18.321-38.877,27.458-58.327c0.88-1.874,1.66-3.799,2.39-5.737
			c0.262-0.697,0.238-1.503,0.343-2.259c-0.772-0.086-1.611-0.413-2.31-0.223c-7.378,2.01-14.818,3.851-22.083,6.223
			c-18.854,6.155-36.839,14.192-53.358,25.321c-18.67,12.577-33.062,29.166-45.243,47.862
			c-13.687,21.007-23.385,43.692-28.576,68.248c-3.468,16.402-4.142,32.973-3.025,49.687c1.359,20.337,5.208,40.177,11.608,59.49
			c1.683,5.077,4.578,9.746,6.792,14.659c0.422,0.938,0.704,2.35,0.303,3.182c-8.283,17.148-16.675,34.247-25.05,51.352
			C105.65,468.718,105.282,469.334,104.507,470.757z"/>
		<path fill-rule="evenodd" fill="#FFFFFF" d="M409.296,390.965c0,3.521,0,7.04,0,10.56c0.001,21.057-0.036,42.113,0.052,63.17
			c0.01,2.627-0.82,3.397-3.431,3.388c-25.141-0.093-50.282-0.062-75.422-0.076c-0.703,0-1.406-0.095-2.22-0.153
			c-0.2-1.921-0.263-3.73-0.599-5.489c-1.06-5.559,2.94-8.016,6.434-10.87c12.902-10.543,25.771-21.125,38.646-31.699
			c11.403-9.365,22.798-18.741,34.203-28.103c0.408-0.336,0.903-0.567,1.358-0.847C408.645,390.884,408.971,390.925,409.296,390.965
			z"/>
	</g>
</g>
</svg>
